<svg id="visual" viewBox="0 0 960 540" width="960" height="540" xmlns="http://www.w3.org/2000/svg" xmlns:xlink="http://www.w3.org/1999/xlink" version="1.1"><rect x="0" y="0" width="960" height="540" fill="#002233"></rect><path d="M0 451L22.8 447.3C45.7 443.7 91.3 436.3 137 432C182.7 427.7 228.3 426.3 274 412C319.7 397.7 365.3 370.3 411.2 368.7C457 367 503 391 548.8 411.2C594.7 431.3 640.3 447.7 686 454.3C731.7 461 777.3 458 823 439C868.7 420 914.3 385 937.2 367.5L960 350L960 541L937.2 541C914.3 541 868.7 541 823 541C777.3 541 731.7 541 686 541C640.3 541 594.7 541 548.8 541C503 541 457 541 411.2 541C365.3 541 319.7 541 274 541C228.3 541 182.7 541 137 541C91.3 541 45.7 541 22.8 541L0 541Z" fill="#000000" stroke-linecap="round" stroke-linejoin="miter"></path></svg>